<?xml version="1.0" standalone="no"?>
<!DOCTYPE svg PUBLIC "-//W3C//DTD SVG 20010904//EN"
 "http://www.w3.org/TR/2001/REC-SVG-20010904/DTD/svg10.dtd">
<svg version="1.0" xmlns="http://www.w3.org/2000/svg"
 width="300.000000pt" height="300.000000pt" viewBox="0 0 300.000000 300.000000"
 preserveAspectRatio="xMidYMid meet">

<g transform="translate(0.000000,300.000000) scale(0.100000,-0.100000)"
fill="#9C160C" stroke="none">
<path d="M1290 2986 c-337 -49 -613 -188 -856 -430 -180 -181 -286 -351 -364
-585 -56 -166 -70 -262 -70 -471 0 -209 14 -305 70 -471 78 -234 184 -404 364
-585 225 -225 489 -364 796 -421 130 -24 390 -24 520 0 307 57 571 196 796
421 225 225 364 489 421 796 24 130 24 390 0 520 -57 307 -196 571 -421 796
-181 180 -351 286 -585 364 -64 22 -156 46 -206 55 -125 23 -348 28 -465 11z
m-364 -1288 c141 -77 162 -269 40 -376 -49 -42 -91 -52 -233 -52 l-123 0 0
226 0 226 143 -4 c108 -3 149 -7 173 -20z m539 -205 l82 -223 -63 0 -62 0 -18
45 -17 46 -80 -3 -80 -3 -15 -42 -14 -43 -59 0 c-32 0 -59 4 -59 9 0 5 34 100
75 212 42 112 78 210 80 217 3 9 25 12 76 10 l72 -3 82 -222z m475 182 l0 -45
-105 0 -105 0 0 -35 0 -35 95 0 95 0 0 -45 0 -45 -95 0 -95 0 0 -55 0 -55 105
0 105 0 0 -45 0 -45 -170 0 -170 0 0 225 0 225 170 0 170 0 0 -45z m386 30
c66 -27 79 -120 24 -170 -19 -17 -19 -18 13 -39 58 -39 70 -102 30 -163 -33
-51 -79 -63 -233 -63 l-140 0 0 225 0 225 135 0 c97 0 146 -4 171 -15z"/>
<path d="M740 1496 l0 -136 28 0 c88 0 142 43 150 118 8 88 -35 138 -127 149
l-51 6 0 -137z"/>
<path d="M1286 1523 c-10 -32 -21 -64 -23 -70 -4 -10 9 -13 47 -13 38 0 51 3
47 13 -2 6 -13 38 -23 70 -10 31 -21 57 -24 57 -3 0 -14 -26 -24 -57z"/>
<path d="M2150 1589 l0 -52 46 7 c59 8 64 11 64 47 0 33 -27 49 -81 49 -28 0
-29 -1 -29 -51z"/>
<path d="M2150 1404 l0 -57 56 6 c65 7 86 21 82 56 -4 32 -39 51 -95 51 l-43
0 0 -56z"/>
</g>
</svg>
